<?xml version="1.0" standalone="no"?>
<!DOCTYPE svg PUBLIC "-//W3C//DTD SVG 20010904//EN"
 "http://www.w3.org/TR/2001/REC-SVG-20010904/DTD/svg10.dtd">
<svg version="1.0" xmlns="http://www.w3.org/2000/svg"
 width="1109.370299pt" height="501.687912pt" viewBox="0 0 1109.370299 501.687912"
 preserveAspectRatio="xMidYMid meet">
<metadata>
Created by potrace 1.12, written by Peter Selinger 2001-2015
</metadata>
<g transform="translate(-70.629701,682.748266) scale(0.100000,-0.100000)"
fill="#000000" stroke="none">
<path d="M6008 6823 c12 -2 30 -2 40 0 9 3 -1 5 -23 4 -22 0 -30 -2 -17 -4z"/>
<path d="M6559 6406 c-2 -2 -188 -6 -414 -10 -225 -4 -470 -11 -544 -17 -74
-5 -166 -10 -205 -10 -39 -1 -89 -5 -111 -9 -22 -5 -128 -14 -235 -20 -107 -6
-222 -16 -255 -22 -33 -6 -78 -10 -99 -9 -43 1 -274 -23 -371 -39 -33 -5 -99
-15 -147 -21 -49 -6 -88 -14 -88 -19 0 -7 -61 -16 -175 -26 -33 -3 -86 -12
-118 -19 -32 -8 -73 -15 -91 -15 -18 0 -70 -11 -116 -25 -46 -14 -96 -25 -112
-25 -16 0 -36 -4 -46 -10 -17 -9 -77 -24 -167 -40 -27 -5 -61 -14 -75 -19 -25
-9 -115 -36 -285 -86 -49 -14 -110 -35 -135 -45 -25 -11 -70 -27 -100 -36 -30
-9 -59 -20 -65 -24 -5 -4 -48 -22 -95 -40 -47 -19 -92 -39 -100 -46 -8 -6 -48
-25 -88 -42 -113 -47 -370 -199 -468 -277 -28 -22 -66 -51 -85 -65 -19 -13
-65 -55 -104 -92 -38 -37 -80 -75 -91 -85 -35 -29 -179 -198 -198 -232 -5 -9
-17 -25 -28 -37 -10 -11 -27 -36 -37 -55 -10 -19 -33 -59 -50 -89 -17 -30 -46
-87 -66 -127 -19 -39 -39 -74 -44 -77 -5 -4 -13 -21 -16 -39 -4 -17 -10 -36
-14 -42 -3 -5 -6 -12 -7 -15 0 -3 -6 -18 -12 -33 -7 -16 -12 -34 -12 -40 0 -7
-7 -24 -14 -39 -8 -15 -17 -53 -21 -85 -3 -32 -14 -87 -23 -123 -12 -47 -16
-112 -17 -235 l0 -170 -25 -7 c-14 -4 -45 -13 -70 -20 -33 -10 -46 -19 -48
-34 -3 -18 4 -22 44 -28 26 -3 66 -6 89 -6 43 0 43 0 54 -47 18 -74 42 -155
56 -188 7 -16 19 -47 26 -67 7 -21 16 -38 20 -38 4 0 10 -18 14 -40 4 -22 10
-40 14 -40 3 0 15 -17 26 -37 11 -21 28 -47 38 -58 11 -11 35 -48 55 -83 20
-34 43 -64 52 -67 19 -6 64 -64 56 -72 -15 -15 -457 -74 -583 -77 -73 -2 -97
-6 -113 -21 -15 -14 -17 -21 -9 -32 6 -7 17 -13 24 -13 7 0 18 -6 24 -14 11
-12 17 -13 45 -1 19 8 75 17 126 20 50 3 131 12 178 20 48 9 99 13 114 10 14
-4 53 -2 85 4 32 5 87 12 123 16 62 6 68 4 101 -22 20 -15 48 -37 64 -48 15
-11 40 -30 55 -42 15 -13 37 -23 49 -23 12 0 20 -3 20 -7 -3 -20 2 -33 14 -33
6 0 32 -16 56 -35 24 -19 49 -35 55 -35 18 0 66 -24 66 -33 0 -5 5 -5 11 -2 5
4 18 1 27 -7 9 -8 33 -21 52 -28 19 -7 42 -19 51 -27 8 -7 20 -13 25 -13 5 0
36 -13 67 -30 32 -16 66 -30 75 -30 9 -1 42 -12 72 -25 58 -25 63 -37 35 -80
-7 -11 -37 -77 -68 -145 -69 -157 -112 -251 -143 -314 -15 -31 -20 -54 -15
-59 16 -16 37 -1 55 40 9 21 21 45 27 53 12 20 44 88 110 235 95 212 123 249
170 224 10 -5 27 -9 38 -9 11 0 32 -5 48 -12 15 -6 39 -12 53 -14 14 -1 54 -9
90 -18 36 -10 101 -21 145 -26 107 -12 306 -41 325 -47 40 -14 641 -17 745 -4
44 5 83 7 87 5 4 -2 26 0 50 5 24 6 86 11 138 12 87 2 159 9 370 38 41 6 111
13 155 16 109 8 143 12 154 19 11 7 124 23 217 32 38 3 76 10 86 15 9 5 27 8
40 8 13 -1 70 9 128 21 58 12 114 23 125 25 11 1 43 6 70 10 28 5 59 9 70 10
47 3 122 19 145 30 24 11 87 15 83 5 -16 -46 -29 -69 -64 -115 -23 -30 -45
-55 -49 -55 -7 0 -122 -170 -148 -220 -7 -14 -19 -32 -27 -40 -19 -22 -61
-109 -73 -151 -7 -26 -6 -43 3 -65 8 -16 14 -23 14 -16 1 6 7 12 15 12 9 0 12
7 9 18 -7 27 76 197 108 222 4 3 14 21 23 40 24 51 39 74 60 96 11 10 36 44
55 74 45 70 88 126 124 162 15 16 27 32 27 37 0 7 71 44 90 47 3 0 12 3 20 7
8 3 38 8 65 11 71 6 168 27 179 37 6 5 22 9 37 9 15 0 39 4 53 10 15 5 41 12
59 14 55 7 247 53 285 67 13 5 31 9 41 9 10 0 36 8 57 17 22 9 57 18 79 20 22
2 42 8 43 13 2 6 19 10 37 10 35 0 85 18 96 34 4 5 21 7 38 4 17 -2 31 -1 31
2 0 4 22 10 48 14 27 3 51 9 55 12 9 9 201 74 220 74 10 0 39 9 65 19 59 24
207 71 223 71 7 0 31 9 53 19 39 18 60 24 130 38 16 3 45 17 64 30 20 13 42
21 50 18 7 -3 20 2 28 10 9 8 30 15 48 15 17 0 36 4 42 8 5 5 29 14 54 21 44
13 129 45 162 62 10 5 24 9 31 9 7 0 31 9 53 19 22 11 52 23 67 26 15 4 30 11
33 16 3 5 16 9 30 9 39 0 38 -3 -53 -200 -19 -41 -50 -107 -69 -147 -19 -40
-34 -75 -34 -79 0 -3 -19 -44 -42 -90 -23 -46 -39 -87 -34 -91 11 -11 51 41
88 117 18 36 38 71 45 78 7 7 13 17 13 22 0 15 90 199 100 205 6 3 10 13 10
20 0 30 83 186 109 204 39 27 169 74 182 65 7 -4 9 -3 6 3 -6 9 54 33 83 33 6
0 24 8 38 18 15 10 48 25 75 32 26 7 47 17 47 21 0 5 12 9 26 9 14 0 49 9 77
21 29 11 63 25 75 30 48 19 138 47 191 59 30 7 65 18 79 26 13 7 31 10 39 7 7
-3 21 1 31 9 18 16 144 48 282 73 47 8 162 18 255 21 165 6 171 6 198 -15 50
-41 33 -46 -75 -26 -69 13 -32 -38 37 -53 24 -5 41 -14 43 -24 3 -17 -45 -128
-56 -128 -9 0 -36 -60 -38 -84 -1 -10 -9 -23 -18 -28 -9 -5 -16 -20 -16 -33 0
-13 -7 -31 -16 -40 -21 -20 -11 -53 11 -35 8 7 15 17 15 22 0 8 37 66 50 78
22 21 82 115 91 142 15 46 32 82 44 90 5 4 10 12 10 18 0 5 3 10 7 10 19 1 94
32 108 44 8 8 26 17 40 21 14 4 48 18 77 32 36 17 69 25 110 25 32 0 63 5 70
10 8 6 59 7 135 3 182 -10 653 -4 665 8 3 4 16 8 27 8 12 1 -42 7 -119 14 -84
7 -155 8 -178 3 -21 -5 -43 -6 -49 -2 -5 4 -124 7 -263 8 -140 1 -257 5 -261
9 -4 4 -2 7 5 7 16 0 62 36 55 42 -2 3 7 3 21 1 15 -3 25 -1 25 6 0 6 5 11 10
11 6 0 20 9 32 20 12 11 28 20 35 20 7 0 12 6 10 13 -1 7 11 13 31 15 28 3 32
7 27 23 -5 15 0 22 24 30 28 10 35 19 32 41 0 3 13 12 29 20 17 7 30 19 30 25
0 7 4 13 8 13 13 0 135 123 163 164 13 20 30 34 37 31 7 -3 10 -1 7 5 -3 5 8
19 24 31 17 12 28 26 25 31 -3 4 2 8 11 8 9 0 14 4 10 9 -3 5 3 16 13 23 23
17 62 80 62 102 0 9 6 16 14 16 8 0 17 11 20 24 3 14 19 39 36 57 22 24 28 39
23 56 -4 17 0 28 12 37 11 8 16 20 12 29 -3 8 1 21 9 27 8 7 14 21 14 31 0 11
5 19 10 19 6 0 10 9 10 19 0 11 5 21 12 23 8 3 7 14 -5 38 -13 25 -14 36 -6
46 9 11 8 14 -4 14 -11 0 -14 10 -13 40 2 40 -16 72 -29 51 -6 -11 0 -85 10
-100 3 -5 1 -11 -5 -13 -5 -1 -11 -30 -13 -63 -3 -54 -13 -88 -38 -137 -5 -10
-9 -23 -9 -30 0 -7 -18 -39 -40 -71 -22 -31 -40 -62 -40 -68 0 -11 -54 -90
-87 -126 -13 -13 -23 -25 -23 -27 0 -5 -149 -161 -187 -196 -15 -14 -59 -58
-97 -98 -39 -41 -83 -80 -99 -88 -15 -8 -40 -26 -55 -39 -51 -45 -87 -72 -137
-101 -27 -15 -56 -34 -63 -41 -30 -29 -98 -35 -371 -32 -255 2 -732 -17 -1231
-50 -142 -10 -277 -15 -324 -12 -14 1 -17 6 -12 24 13 42 17 62 23 98 6 38 42
69 82 69 12 0 21 5 21 10 0 6 10 15 23 20 20 8 20 9 -9 9 -17 1 -44 -6 -60
-14 -44 -21 -71 -10 -79 33 -3 21 -18 54 -33 76 -26 38 -27 38 -77 32 -34 -4
-45 -2 -35 4 24 15 -4 12 -86 -9 -83 -21 -131 -44 -74 -35 19 3 51 12 71 21
20 8 45 13 55 11 21 -4 1 -11 -186 -74 -83 -27 -134 -38 -182 -39 -49 -1 -72
-6 -87 -19 -13 -12 -37 -18 -74 -19 -59 -1 -87 13 -87 44 0 11 -15 35 -32 54
l-33 36 -97 -21 c-53 -11 -105 -23 -115 -26 -16 -5 -16 -4 1 10 29 24 5 20
-100 -15 -90 -31 -127 -55 -64 -42 53 10 32 -5 -37 -28 -38 -12 -72 -25 -78
-29 -15 -11 -124 -50 -138 -50 -7 0 -3 7 7 15 17 13 17 15 4 15 -9 0 -19 -4
-22 -9 -3 -5 -21 -12 -40 -15 -19 -4 -36 -12 -38 -18 -3 -7 -21 -12 -44 -11
-41 2 -92 -23 -78 -37 24 -24 117 -8 184 30 14 8 36 16 50 18 14 2 27 7 28 13
2 5 11 9 20 9 23 0 166 47 227 75 67 31 143 53 228 66 l70 11 23 -29 c13 -15
23 -35 24 -44 1 -40 91 -108 108 -82 4 6 36 13 71 17 35 4 71 11 80 16 69 37
246 100 280 100 11 0 23 4 26 10 3 6 19 10 34 10 15 0 31 4 37 10 5 5 30 12
54 16 42 5 47 3 71 -28 33 -43 46 -88 24 -88 -19 0 -74 27 -93 47 -20 19 -37
11 -37 -18 0 -19 10 -29 45 -46 25 -12 59 -24 75 -26 29 -4 30 -5 27 -53 -2
-26 -9 -62 -17 -80 l-13 -31 -148 -7 c-82 -4 -176 -11 -209 -16 -33 -5 -125
-14 -205 -20 -80 -6 -188 -15 -240 -20 -52 -4 -178 -15 -280 -24 -102 -9 -230
-21 -285 -26 -55 -6 -134 -12 -175 -15 -41 -2 -93 -6 -115 -9 -43 -5 -217 -26
-249 -29 -33 -3 -28 17 16 69 38 44 58 79 116 200 15 32 50 52 94 56 45 4 21
28 -28 28 -37 0 -46 4 -55 24 -11 24 -54 50 -69 41 -4 -3 -15 7 -24 20 l-17
26 -27 -19 c-15 -11 -38 -23 -52 -27 -14 -4 -34 -12 -45 -19 -11 -7 -39 -18
-63 -26 -49 -15 -69 -36 -28 -28 14 3 26 1 26 -4 0 -10 -44 -28 -68 -28 -14 0
-15 2 -2 10 8 5 12 11 9 15 -8 7 -159 -65 -159 -76 0 -5 12 -7 28 -4 24 6 25
5 10 -8 -10 -8 -15 -17 -11 -21 11 -10 42 25 36 41 -5 13 0 14 28 9 22 -5 29
-4 20 2 -18 13 3 25 30 17 12 -4 38 2 64 14 57 27 65 26 91 -6 19 -24 27 -27
88 -27 78 0 80 -5 32 -80 -18 -29 -36 -61 -40 -72 -3 -11 -24 -37 -46 -59 -21
-22 -39 -45 -40 -51 0 -20 -51 -32 -170 -43 -63 -6 -126 -13 -140 -16 -14 -3
-67 -10 -118 -15 -52 -5 -130 -14 -175 -19 -45 -6 -109 -13 -142 -16 -33 -3
-132 -14 -220 -25 -88 -10 -180 -21 -205 -24 -25 -3 -97 -12 -160 -20 -63 -9
-128 -16 -145 -16 l-30 0 24 19 c13 10 21 23 18 28 -3 5 16 23 43 39 27 16 50
33 50 37 0 18 -50 -9 -133 -74 -52 -40 -102 -70 -120 -73 -30 -5 -105 -14
-297 -37 -47 -5 -146 -18 -220 -29 -74 -11 -216 -29 -315 -40 -99 -12 -227
-27 -285 -35 -135 -18 -240 -25 -240 -16 0 7 65 24 385 96 84 19 153 37 260
70 44 14 86 25 93 25 7 0 20 4 30 9 9 6 60 19 112 31 52 12 122 27 155 35 177
41 233 54 265 60 19 4 50 16 68 26 18 10 39 19 45 19 18 0 84 64 92 89 8 25
-19 78 -54 109 -42 37 -188 89 -316 113 -92 17 -498 55 -690 64 -66 3 -167 10
-225 15 -58 5 -145 12 -195 15 -49 4 -94 8 -100 9 -6 2 -10 63 -10 156 l0 153
25 8 c14 4 59 14 100 23 41 9 99 24 128 33 30 8 66 16 80 17 15 1 32 4 37 8 6
3 26 9 45 13 19 4 41 11 50 16 8 4 64 18 123 29 59 12 128 27 153 35 39 11 46
11 51 -1 7 -19 53 -18 81 2 12 8 27 12 34 8 6 -4 8 -3 4 4 -3 6 -2 13 3 17 17
10 281 75 306 75 12 0 45 6 71 14 27 8 83 20 124 26 41 7 91 17 110 22 19 5
62 13 95 18 109 15 369 59 416 70 68 17 171 18 176 3 5 -14 33 -18 33 -5 0 4
-5 13 -11 19 -12 12 -3 14 106 32 39 7 89 16 113 21 58 13 89 12 96 -2 3 -10
9 -8 19 5 9 11 33 19 63 21 27 3 63 7 79 10 46 9 95 16 148 20 36 4 47 1 47
-10 0 -15 12 -19 23 -7 4 3 2 12 -4 20 -9 10 -7 13 10 13 12 0 20 -4 16 -9 -3
-5 -1 -12 5 -16 5 -3 10 1 10 9 0 12 11 15 43 15 56 -1 80 4 89 16 5 6 11 6
19 -2 9 -9 15 -9 25 2 8 7 40 17 71 20 32 4 94 13 138 21 44 7 96 14 116 14
20 0 49 4 65 9 16 5 56 12 89 15 76 7 183 27 295 56 25 6 82 12 126 13 45 1
80 5 77 10 -2 4 11 7 29 8 86 1 145 8 170 17 24 10 31 8 47 -10 21 -21 57 -21
118 3 21 8 23 12 13 24 -10 13 -16 13 -48 0 -53 -23 -52 -8 1 15 50 22 57 38
30 63 -15 12 -36 14 -113 11 -137 -7 -229 -13 -275 -19 -22 -3 -69 -8 -105
-10 -89 -7 -238 -29 -523 -77 -37 -6 -70 -15 -72 -19 -3 -4 -14 -5 -24 -2 -11
3 -35 0 -53 -6 -18 -6 -76 -15 -128 -21 -112 -12 -198 -28 -223 -41 -9 -5 -27
-7 -40 -4 -12 3 -56 -3 -97 -13 -41 -11 -114 -26 -162 -33 -49 -7 -88 -17 -88
-22 0 -4 -5 -5 -11 -1 -6 4 -34 2 -63 -4 -162 -34 -328 -66 -378 -72 -31 -4
-61 -10 -66 -14 -9 -6 -92 -23 -197 -42 -16 -3 -37 -8 -45 -11 -8 -3 -25 -5
-37 -4 -11 1 -24 -3 -28 -8 -3 -6 -23 -11 -43 -11 -20 -1 -64 -7 -97 -14 -99
-23 -385 -84 -470 -101 -44 -8 -118 -24 -165 -35 -47 -10 -112 -24 -145 -30
-33 -7 -76 -17 -95 -23 -19 -6 -42 -12 -50 -13 -34 -3 -186 -38 -195 -44 -5
-4 -37 -13 -70 -20 -33 -7 -67 -15 -75 -18 -8 -3 -22 -7 -30 -8 -51 -7 -232
-47 -269 -59 -55 -18 -61 -19 -61 -1 0 8 -4 16 -10 18 -5 2 -6 18 -2 38 12 52
-3 301 -18 310 -9 5 -9 9 -1 14 14 9 14 71 1 97 -8 13 -7 25 0 40 9 15 8 24
-1 35 -9 11 -9 18 -1 26 15 15 16 32 2 23 -13 -8 -13 1 1 27 7 14 8 23 1 30
-7 7 -7 19 -1 36 7 17 6 27 -1 32 -6 4 -9 20 -6 35 3 17 0 32 -7 37 -9 6 -8
11 3 19 11 8 12 12 3 16 -17 6 -16 41 1 59 11 11 14 32 10 87 -3 39 -5 81 -5
92 0 11 -8 49 -17 85 -14 51 -22 65 -37 65 -15 0 -21 -13 -32 -75 -8 -41 -15
-89 -16 -105 -2 -17 -6 -35 -10 -41 -3 -6 -9 -24 -11 -40 -5 -26 -15 -64 -60
-240 -7 -28 -18 -60 -24 -71 -6 -11 -9 -23 -5 -26 3 -3 2 -14 -2 -24 -5 -10
-9 -22 -11 -28 -31 -109 -70 -230 -86 -265 -11 -25 -26 -65 -33 -90 -14 -49
-86 -241 -116 -306 -24 -54 -36 -62 -105 -75 -33 -6 -113 -24 -179 -40 -66
-16 -176 -41 -245 -54 -69 -14 -133 -30 -143 -36 -10 -5 -46 -12 -80 -15 -34
-3 -84 -12 -110 -20 -26 -8 -71 -19 -100 -25 -29 -6 -70 -15 -92 -21 -22 -5
-62 -13 -90 -17 -27 -4 -102 -20 -165 -34 -63 -14 -131 -29 -150 -32 -19 -4
-53 -16 -76 -26 -22 -10 -77 -22 -121 -28 -44 -6 -93 -17 -109 -24 -16 -8 -67
-22 -114 -32 -47 -9 -116 -23 -153 -30 -99 -21 -114 -12 -122 67 -10 107 1
271 27 378 12 53 83 270 105 320 29 69 105 215 122 235 9 11 27 40 41 65 38
72 125 175 307 368 17 17 34 32 37 32 3 0 37 31 76 69 39 37 89 76 110 86 22
10 40 23 40 29 0 6 30 29 66 51 36 22 82 50 102 62 59 36 393 199 437 213 22
7 45 16 50 20 6 3 46 19 90 35 44 15 91 34 105 41 29 14 138 48 190 59 19 4
40 11 46 16 13 11 84 31 189 54 39 9 78 20 87 25 10 6 26 10 37 10 10 0 41 6
67 14 59 18 182 44 286 61 43 7 92 18 110 24 18 5 60 12 94 15 34 3 88 13 122
21 33 9 93 18 134 21 119 8 146 12 156 18 9 5 186 28 357 46 50 5 113 12 140
15 28 3 87 8 133 11 45 2 102 7 125 9 90 10 405 30 622 41 72 3 157 8 190 10
33 2 331 6 661 9 331 2 605 5 610 6 5 2 52 -1 104 -4 52 -4 203 -10 335 -13
132 -3 303 -10 380 -15 77 -6 163 -8 190 -5 33 3 43 1 30 -4 -17 -7 -16 -9 10
-10 180 -7 343 -21 490 -42 39 -5 108 -14 155 -19 47 -6 119 -14 160 -19 41
-5 118 -15 170 -24 52 -8 136 -20 185 -26 50 -6 104 -15 120 -20 17 -5 66 -16
110 -24 128 -24 276 -58 535 -121 125 -31 177 -45 210 -58 37 -15 95 -34 195
-63 33 -9 64 -21 70 -26 5 -4 17 -8 27 -8 16 0 79 -22 203 -72 136 -55 326
-146 380 -182 33 -22 80 -50 105 -62 92 -43 265 -206 306 -286 14 -27 31 -48
40 -48 15 0 15 2 0 24 -9 14 -13 31 -10 39 9 24 -113 164 -211 244 -49 40
-128 93 -175 117 -47 24 -111 58 -143 75 -32 17 -64 31 -71 31 -7 0 -24 9 -38
19 -13 11 -56 32 -94 47 -38 15 -73 30 -79 34 -5 4 -26 11 -45 15 -19 4 -39
11 -45 15 -5 4 -41 17 -80 29 -38 12 -110 35 -160 51 -166 52 -194 60 -222 60
-16 0 -33 4 -38 9 -24 22 -561 151 -715 171 -36 4 -99 15 -140 24 -70 15 -155
27 -190 28 -8 0 -31 4 -50 9 -39 9 -238 40 -285 44 -16 1 -59 5 -95 9 -36 4
-87 9 -115 12 -27 2 -70 9 -95 14 -40 8 -328 29 -625 45 -55 3 -118 8 -140 10
-52 6 -599 19 -645 15 -19 -1 -42 -2 -50 -2 -79 4 -529 10 -531 8z m-2924
-1033 c4 -38 9 -212 11 -388 4 -305 11 -561 16 -586 2 -7 -19 -21 -47 -31 -51
-20 -64 -24 -200 -53 -44 -9 -95 -23 -114 -31 -50 -21 -51 -19 -29 39 11 28
26 68 33 87 8 19 17 44 21 55 4 11 8 22 9 25 1 3 5 14 10 25 39 100 78 209
108 305 20 63 49 158 66 210 32 105 54 191 71 290 18 107 21 120 29 120 5 0
11 -30 16 -67z m4394 -227 c10 -12 4 -14 -40 -12 -28 1 -56 -2 -63 -8 -13 -12
-36 -14 -52 -3 -6 3 -25 0 -41 -8 -25 -13 -92 -21 -303 -40 -25 -2 -103 -16
-175 -30 -71 -14 -159 -28 -195 -31 -36 -3 -78 -7 -95 -10 -358 -52 -368 -53
-353 -39 3 3 49 12 102 20 54 8 102 18 108 21 6 4 33 8 62 10 28 1 87 10 131
20 44 9 107 20 140 24 172 23 368 54 430 67 38 8 117 18 175 20 58 3 107 7
109 9 10 9 49 3 60 -10z m-1344 -196 c-3 -5 -19 -10 -36 -10 -16 0 -29 5 -29
10 0 6 16 10 36 10 21 0 33 -4 29 -10z m-80 -10 c-3 -5 -23 -10 -43 -9 -30 0
-33 2 -17 9 28 12 67 12 60 0z m-2940 -639 c-3 -5 -1 -12 4 -15 5 -4 10 -41
11 -84 1 -42 2 -102 3 -132 l2 -55 -30 2 c-387 25 -467 32 -480 45 -8 8 35
115 54 131 18 15 73 31 276 81 156 38 169 40 160 27z m-505 -133 c0 -7 -10
-34 -22 -60 l-23 -48 -70 6 c-38 4 -78 11 -87 15 -9 5 -28 9 -43 9 -44 0 -19
17 58 40 39 12 90 28 112 35 52 17 75 18 75 3z m-337 -67 c-8 -31 28 -56 98
-70 35 -6 88 -16 116 -22 l53 -10 -15 -29 c-8 -16 -15 -34 -15 -41 0 -6 -22
-57 -49 -113 -26 -56 -52 -113 -56 -126 -4 -14 -25 -59 -46 -102 -22 -42 -39
-80 -39 -84 0 -23 -44 -94 -58 -94 -18 0 -232 65 -267 81 -11 5 -35 11 -52 14
-18 3 -68 16 -110 29 -43 13 -91 27 -108 30 -16 3 -50 9 -75 15 -25 5 -70 14
-100 20 -30 6 -98 20 -150 31 -52 11 -117 22 -145 24 -27 2 -90 11 -140 20
-49 9 -113 16 -142 16 -29 0 -76 5 -105 11 -41 9 -53 9 -56 -1 -3 -9 -6 -9
-12 0 -4 7 -53 14 -130 18 -77 4 -125 11 -127 18 -5 16 17 23 137 46 58 10
125 24 150 30 25 5 82 11 127 12 61 2 88 7 101 19 10 9 61 26 113 38 52 11
154 33 226 49 73 16 159 36 190 44 114 30 418 85 440 80 14 -4 33 2 52 15 16
12 40 21 53 21 18 1 137 24 145 29 0 1 -1 -8 -4 -18z m642 -117 c72 -8 151
-14 176 -14 57 0 58 -2 63 -156 2 -61 9 -121 15 -133 8 -14 11 -53 9 -102 -2
-43 0 -79 5 -79 4 0 7 -14 7 -31 0 -41 20 -119 31 -119 11 0 12 67 3 134 -5
31 -10 43 -15 34 -5 -7 -6 20 -4 61 3 40 8 77 11 82 3 5 1 9 -4 9 -10 0 -9 -7
-20 145 -5 66 -4 125 0 131 9 12 94 11 228 -2 36 -4 79 -8 95 -9 17 -2 89 -6
160 -9 72 -4 148 -9 170 -12 22 -3 54 -6 70 -6 17 -1 71 -5 120 -9 50 -5 117
-11 150 -14 209 -18 415 -68 461 -110 15 -14 31 -25 35 -25 18 0 29 -39 18
-63 -11 -24 -78 -67 -104 -67 -8 0 -18 -6 -22 -12 -4 -7 -17 -14 -28 -15 -69
-6 -128 -22 -183 -48 -26 -13 -66 -24 -88 -26 -21 -1 -45 -7 -53 -13 -18 -14
-71 -17 -71 -4 0 5 -7 2 -16 -6 -8 -9 -25 -18 -37 -21 -12 -2 -54 -11 -94 -20
-40 -8 -84 -15 -98 -15 -14 0 -42 -7 -63 -16 -20 -9 -47 -16 -59 -15 -12 1
-37 -4 -55 -12 -49 -21 -107 -39 -137 -42 -68 -8 -156 -27 -182 -40 -15 -8
-43 -15 -61 -15 -18 0 -49 -5 -68 -10 -29 -8 -37 -7 -47 6 -11 15 -14 14 -35
-9 -19 -21 -49 -29 -188 -57 -225 -45 -243 -46 -277 -23 -67 47 -173 93 -243
108 -3 0 -28 13 -57 28 -29 15 -60 27 -70 27 -10 0 -25 5 -33 10 -13 8 -13 13
2 42 9 18 30 65 46 103 16 39 52 117 80 175 28 58 69 148 91 200 35 82 44 96
68 101 33 8 121 3 298 -17z m3498 -41 c5 -3 0 -13 -10 -22 -25 -24 -113 -17
-113 9 0 24 87 33 123 13z m3620 -180 c-13 -2 -23 -11 -23 -19 0 -14 -21 -21
-74 -26 -22 -2 -29 2 -32 16 -5 32 4 36 79 35 40 -1 62 -4 50 -6z m-966 -41
c-24 -9 -36 -20 -33 -28 3 -7 0 -16 -6 -20 -7 -4 -8 -3 -4 4 4 7 1 12 -8 12
-9 0 -15 -5 -13 -12 2 -10 -55 -32 -111 -43 -12 -2 -36 -10 -52 -19 -25 -12
-30 -12 -30 -1 0 9 -6 12 -15 9 -8 -4 -15 -12 -15 -19 0 -14 -68 -43 -110 -48
-14 -1 -31 -8 -38 -14 -7 -7 -20 -13 -28 -13 -8 0 -33 -9 -54 -20 -22 -11 -43
-19 -47 -19 -5 1 -25 -5 -45 -14 -21 -10 -46 -17 -56 -17 -10 0 -22 -4 -28 -9
-5 -5 -20 -12 -33 -16 -17 -5 -22 -4 -16 5 5 8 3 11 -4 9 -7 -3 -12 -9 -12
-14 0 -12 -41 -35 -51 -29 -3 2 -9 0 -13 -6 -7 -11 -45 -13 -69 -4 -16 6 -14
16 24 99 12 25 22 59 23 75 1 17 8 30 15 30 6 0 12 9 12 21 0 11 12 33 28 49
26 28 32 30 137 36 61 3 133 7 160 9 28 1 145 6 260 10 116 4 212 9 214 11 2
2 16 4 30 3 23 -1 22 -3 -12 -17z m-863 -35 c15 -11 16 -18 8 -34 -6 -11 -19
-43 -28 -69 -8 -27 -24 -67 -33 -89 -10 -22 -26 -59 -36 -82 -27 -65 -69 -96
-160 -120 -11 -2 -27 -7 -35 -11 -8 -3 -19 -7 -25 -7 -5 -1 -23 -8 -40 -14
-16 -7 -59 -23 -95 -36 -36 -12 -87 -31 -115 -40 -27 -10 -57 -20 -65 -23 -8
-3 -44 -16 -80 -28 -36 -13 -117 -40 -180 -59 -63 -20 -122 -38 -130 -42 -8
-3 -19 -7 -25 -8 -5 0 -23 -7 -39 -13 -16 -7 -35 -11 -42 -8 -7 3 -18 -1 -24
-9 -6 -7 -31 -16 -56 -20 -25 -3 -91 -23 -147 -44 -56 -21 -127 -44 -157 -51
-99 -22 -251 -61 -351 -91 -36 -10 -74 -19 -85 -19 -10 0 -54 -11 -98 -25 -43
-13 -99 -27 -125 -31 -25 -3 -50 -10 -56 -13 -12 -8 -99 -30 -141 -36 -16 -2
-51 -9 -79 -15 -27 -7 -63 -14 -80 -17 -16 -3 -55 -11 -85 -19 -30 -8 -79 -17
-108 -21 l-54 -6 33 47 c18 25 38 46 43 46 6 0 29 25 50 55 22 30 45 56 51 59
6 2 24 23 40 47 17 24 47 58 68 77 20 19 37 40 37 46 0 7 18 25 40 42 22 16
40 35 40 42 0 7 5 10 10 7 6 -3 10 -1 10 6 0 17 60 79 77 79 7 0 13 7 13 15 0
8 5 15 10 15 6 0 10 -7 10 -15 0 -8 5 -15 11 -15 7 0 8 11 4 30 -8 35 12 71
26 48 6 -9 9 -6 9 10 0 14 13 36 30 52 17 15 30 32 30 38 0 5 11 21 25 36 14
15 25 31 25 37 0 5 4 9 8 9 5 0 30 27 55 60 28 36 52 57 60 54 7 -2 27 0 43 6
16 7 49 14 74 16 104 11 230 25 305 34 44 6 139 13 210 16 72 3 137 7 145 11
8 3 38 7 65 9 28 2 106 9 175 16 69 6 149 11 177 10 29 0 55 4 59 9 3 6 36 10
72 10 37 0 110 4 162 10 52 5 172 16 265 23 94 7 173 14 176 15 3 0 13 -5 23
-12z m-7461 -22 c93 -8 199 -20 235 -25 37 -5 83 -9 102 -9 19 1 62 -4 95 -10
33 -6 78 -14 100 -17 63 -9 74 -15 48 -25 -28 -10 -30 -29 -4 -29 42 0 81 13
81 27 0 11 6 13 23 9 39 -12 130 -34 192 -46 33 -6 103 -25 155 -40 52 -16
107 -31 123 -34 15 -3 39 -9 55 -12 15 -3 36 -9 47 -14 11 -4 41 -14 68 -20
26 -7 47 -17 47 -21 0 -5 9 -9 21 -9 20 0 119 -29 119 -35 0 -6 -37 -88 -79
-177 -23 -48 -49 -92 -59 -97 -9 -4 -49 -12 -88 -15 -39 -4 -82 -9 -95 -12
-29 -6 -72 -11 -214 -24 -132 -13 -241 -25 -355 -39 -437 -55 -409 -56 -476
16 -30 31 -73 88 -96 127 -24 39 -48 77 -55 83 -20 21 -120 233 -153 323 -18
49 -26 140 -13 140 4 0 84 -7 176 -15z m5408 -167 c-6 -7 -36 -44 -67 -83 -31
-38 -62 -74 -70 -78 -8 -4 -14 -14 -14 -21 0 -7 -11 -23 -25 -36 -14 -13 -25
-31 -25 -40 0 -20 -57 -80 -76 -80 -8 0 -13 -6 -11 -12 1 -7 -4 -12 -10 -11
-7 2 -13 -3 -13 -10 0 -7 -9 -23 -20 -35 -11 -12 -20 -25 -20 -29 0 -4 -17
-26 -39 -48 -82 -85 -107 -113 -174 -190 -38 -44 -83 -96 -100 -117 -18 -20
-35 -34 -40 -31 -4 2 -6 1 -5 -4 2 -5 -14 -29 -34 -54 -43 -53 -83 -68 -243
-95 -55 -9 -128 -22 -163 -30 -35 -8 -76 -14 -91 -14 -15 0 -31 -4 -36 -9 -6
-5 -37 -11 -70 -14 -33 -3 -100 -12 -150 -20 -84 -14 -233 -35 -400 -57 -193
-26 -635 -67 -795 -75 -19 -1 -102 -5 -185 -10 -159 -8 -579 -9 -630 0 -16 2
-73 9 -126 14 -53 6 -118 15 -145 21 -27 6 -60 13 -74 15 -36 5 -231 41 -325
61 -44 9 -84 20 -89 25 -10 9 1 38 93 233 130 276 165 341 193 354 15 7 77 17
139 23 62 6 124 16 138 23 15 7 78 16 141 20 63 3 144 9 180 12 62 6 66 5 100
-25 19 -17 39 -31 44 -31 4 0 25 -14 45 -30 52 -44 55 -46 82 -60 13 -7 39
-28 56 -46 18 -19 37 -34 43 -34 5 0 10 -5 10 -10 0 -6 16 -24 35 -41 19 -17
35 -40 35 -50 0 -11 7 -22 15 -26 19 -7 50 -65 60 -110 9 -46 25 -41 25 7 0
22 5 40 10 40 6 0 10 5 10 11 0 6 -6 9 -14 6 -13 -5 -74 54 -77 75 -1 4 -2 11
-3 16 -1 4 -17 24 -36 44 -19 21 -53 58 -75 83 -40 46 -148 135 -163 135 -5 0
-21 13 -37 30 -34 36 -23 41 125 54 25 3 75 7 111 11 l66 6 -3 -31 c-3 -22 1
-30 12 -30 8 0 14 -7 12 -16 -2 -10 3 -19 10 -21 9 -4 11 2 6 21 -4 16 -2 26
5 26 6 0 11 5 11 10 0 6 -7 10 -15 10 -18 0 -19 11 -2 32 9 12 37 18 107 23
52 3 103 8 112 11 10 3 58 9 108 15 223 23 272 29 375 44 61 9 144 21 185 26
41 5 89 11 105 14 17 4 48 7 70 9 22 2 75 7 118 11 l77 8 0 -27 c0 -28 6 -31
29 -17 9 6 21 5 32 -2 14 -9 22 -7 37 6 10 9 23 17 28 17 15 1 54 37 55 52 0
10 2 10 6 1 3 -10 10 -10 24 -2 11 5 41 11 67 12 26 1 49 5 52 8 3 3 79 13
170 23 91 9 203 23 250 30 47 7 115 14 151 15 36 1 81 6 100 11 19 6 84 15
144 20 202 20 388 40 392 44 1 1 23 3 49 5 36 2 44 -1 35 -11z m-3798 -172
c18 -8 48 -19 68 -25 20 -6 53 -20 74 -31 22 -11 45 -20 53 -20 20 0 92 -39
92 -51 0 -6 4 -7 10 -4 5 3 17 2 26 -3 12 -7 13 -10 2 -19 -15 -13 -52 -19
-445 -79 -29 -5 -43 -3 -43 5 0 6 20 54 45 105 25 52 45 99 45 103 0 12 22 33
33 33 5 0 23 -6 40 -14z m-265 -323 c-2 -5 -10 -21 -17 -38 -7 -16 -51 -107
-97 -202 -46 -94 -84 -174 -84 -177 0 -3 -13 -35 -30 -71 -32 -69 -43 -76 -97
-54 -15 6 -37 15 -48 19 -11 4 -41 17 -68 29 -26 11 -56 21 -67 21 -11 0 -20
4 -20 8 0 8 -79 49 -220 116 -64 31 -109 56 -127 73 -7 6 -28 21 -48 33 -19
12 -35 25 -35 30 0 4 -13 13 -30 20 -31 13 -40 42 -18 56 17 11 375 61 488 69
30 2 55 4 55 5 0 1 35 3 79 4 58 2 81 6 90 18 8 10 36 17 91 22 44 4 92 9 107
12 23 5 27 2 22 -10 -9 -23 19 -20 41 4 17 19 41 28 33 13z"/>
<path d="M1710 3580 c0 -5 12 -10 28 -9 24 0 25 1 7 9 -27 12 -35 12 -35 0z"/>
<path d="M3843 2932 c-14 -9 -12 -143 3 -140 5 2 9 36 9 75 0 40 0 73 0 73 0
0 -5 -4 -12 -8z"/>
<path d="M3867 2794 c-3 -3 -3 -12 0 -20 3 -8 -1 -14 -11 -14 -9 0 -16 -4 -16
-9 0 -23 14 -41 31 -41 16 0 19 8 19 45 0 41 -7 54 -23 39z"/>
<path d="M7103 6043 c9 -2 25 -2 35 0 9 3 1 5 -18 5 -19 0 -27 -2 -17 -5z"/>
<path d="M9105 4396 c-18 -13 -12 -41 12 -51 9 -3 20 0 25 7 6 9 8 7 6 -7 -2
-14 3 -21 17 -23 17 -2 20 3 20 33 0 19 0 35 0 35 0 0 -14 4 -32 9 -22 6 -37
6 -48 -3z"/>
<path d="M7304 4369 c-13 -22 6 -59 34 -64 15 -4 35 -11 45 -16 25 -14 33 -4
20 24 -13 28 -89 71 -99 56z"/>
<path d="M9420 4306 c-25 -6 -44 -17 -42 -24 1 -7 -4 -12 -11 -12 -8 0 -22 -9
-32 -20 -14 -16 -26 -19 -50 -14 -44 8 -135 -40 -135 -71 0 -11 -78 -82 -109
-99 -25 -14 -26 -15 -5 -31 18 -13 18 -14 -3 -8 -13 3 -23 10 -23 17 0 6 -5 4
-10 -4 -12 -19 -3 -27 35 -32 23 -2 30 1 30 14 0 28 11 29 35 3 13 -14 29 -25
36 -25 6 0 17 -7 24 -15 7 -8 21 -15 31 -15 11 0 19 7 19 15 0 17 35 21 45 5
10 -16 25 -12 19 5 -4 10 0 15 16 15 12 0 18 4 15 10 -14 23 24 40 94 41 39 1
71 5 71 10 0 5 7 9 16 9 8 0 12 5 9 11 -4 6 -13 8 -20 5 -7 -2 -21 2 -32 10
-17 13 -17 15 10 38 15 14 27 32 27 41 0 8 7 15 15 15 9 0 15 9 15 25 0 14 6
25 13 25 17 0 15 33 -2 54 -16 19 -39 19 -101 2z m50 -53 c0 -29 -108 -122
-124 -106 -11 12 -6 53 7 53 8 0 20 11 27 25 9 18 19 23 32 19 11 -3 18 0 18
8 0 8 9 14 20 15 12 1 20 -4 20 -14z m-174 -128 c12 -19 14 -28 5 -38 -6 -8
-8 -17 -4 -20 3 -4 -8 -7 -25 -7 -17 0 -43 -5 -57 -10 -15 -6 -37 -7 -50 -4
-32 8 -26 38 8 42 26 3 29 6 31 35 1 6 17 15 36 18 19 3 36 7 37 8 2 0 10 -10
19 -24z"/>
<path d="M8428 4047 c-32 -11 -58 -25 -58 -29 0 -5 9 -4 19 2 11 5 28 10 38
10 10 0 29 9 43 20 31 24 29 24 -42 -3z"/>
<path d="M8702 4038 c3 -7 13 -15 24 -17 16 -3 17 -1 5 13 -16 19 -34 21 -29
4z"/>
<path d="M7501 3969 c-13 -5 -22 -12 -19 -15 8 -8 58 7 58 17 0 11 -8 11 -39
-2z"/>
<path d="M11750 3800 c20 -13 50 -13 50 0 0 6 -15 10 -32 10 -25 0 -29 -3 -18
-10z"/>
<path d="M5940 3772 c-14 -9 -41 -26 -59 -37 -18 -11 -43 -28 -55 -37 -21 -17
-21 -17 8 -12 16 3 46 18 67 35 20 16 42 29 48 29 5 0 15 9 21 20 13 24 4 24
-30 2z"/>
<path d="M6008 3773 c-9 -2 -20 -13 -23 -24 -4 -10 -10 -19 -14 -19 -4 0 -23
-29 -41 -64 -38 -76 -37 -129 4 -147 33 -15 148 26 194 69 8 7 27 19 43 27 16
9 29 20 29 25 0 19 -112 -10 -177 -47 -23 -12 -47 -23 -52 -23 -14 0 -14 37
-1 45 6 3 10 13 10 21 0 7 16 36 35 63 49 68 47 88 -7 74z"/>
<path d="M6282 3739 c-18 -12 -31 -23 -29 -25 6 -7 57 21 62 34 6 15 6 16 -33
-9z"/>
<path d="M5608 3688 c-9 -13 -35 -33 -59 -46 l-44 -24 37 6 c21 2 50 16 65 30
15 14 33 26 40 26 7 0 13 7 13 15 0 23 -36 18 -52 -7z"/>
<path d="M5729 3606 c-2 -2 -21 -6 -43 -9 -21 -3 -41 -9 -45 -14 -8 -11 -95
-52 -100 -47 -7 7 21 34 35 34 8 0 14 7 14 15 0 17 -25 20 -35 5 -3 -5 -15
-10 -26 -10 -31 0 -58 -39 -59 -82 0 -31 4 -38 19 -38 31 0 107 38 160 80 28
22 56 40 64 40 7 0 22 7 33 15 15 12 16 14 3 15 -9 0 -18 -2 -20 -4z"/>
<path d="M10158 3193 c-23 -49 -50 -94 -61 -102 -10 -7 -16 -20 -13 -28 4 -9
-8 -28 -30 -49 -19 -19 -34 -40 -32 -46 2 -6 -6 -22 -19 -36 -13 -14 -23 -38
-23 -53 0 -19 -5 -29 -15 -29 -18 0 -37 -34 -29 -54 4 -10 1 -16 -9 -16 -15 0
-48 -42 -51 -66 -1 -7 -5 -17 -9 -20 -4 -4 -7 -16 -7 -26 0 -11 -5 -16 -10
-13 -7 4 -9 -2 -4 -19 5 -20 2 -26 -10 -26 -18 0 -21 -15 -6 -25 7 -4 7 -11 2
-18 -5 -7 -19 -41 -31 -77 -12 -36 -32 -85 -43 -110 -34 -73 -30 -189 9 -255
17 -28 29 -10 13 20 -26 49 -6 263 29 298 6 6 11 17 11 25 0 7 7 20 15 28 8 9
15 26 15 40 0 14 6 27 14 30 8 3 11 14 9 29 -3 15 3 31 16 44 12 12 21 28 21
36 0 9 7 18 15 21 8 4 15 12 15 20 0 8 5 14 10 14 6 0 10 6 10 13 0 20 60 137
70 137 6 0 10 9 10 19 0 10 7 22 16 25 8 3 13 10 9 15 -3 5 0 13 5 16 6 4 16
18 21 32 5 14 18 27 29 30 11 3 17 9 14 14 -5 9 15 60 47 119 11 19 27 52 35
73 9 20 20 37 26 37 5 0 6 5 3 10 -3 6 -15 10 -26 10 -15 0 -30 -21 -61 -87z"/>
<path d="M2383 2303 c-15 -5 -18 -33 -4 -33 8 0 25 30 19 35 -2 1 -9 0 -15 -2z"/>
</g>
</svg>
